REM DIRINDEX 1\2\6,1\2\7,1\2\8,1\2\9,1\3\10,1\3\11,1\4\12,1\4\13,1\4\14,1\5\15,1\5\16,1\5\17
REM DIRNAME cjc020,folder01,folder02,folder03,folder04,folder05,folder06,folder07,folder08,folder09,folder10,folder11,folder12,folder13,folder14,folder15,folder16
TITLE ""
FILE "1900_3_022 sec04_0347_0362.mp3" MP3
  TRACK 01 AUDIO
    TITLE "0:"
    INDEX 01 00:00:00
  TRACK 02 AUDIO
    TITLE "17:cjc020_6663"
    INDEX 01 00:00:19
  TRACK 03 AUDIO
    TITLE "0:"
    INDEX 01 00:01:24
  TRACK 04 AUDIO
    TITLE "16:cjc020_6664"
    INDEX 01 00:01:28
  TRACK 05 AUDIO
    TITLE "0:"
    INDEX 01 00:02:40
  TRACK 06 AUDIO
    TITLE "17:cjc020_6665"
    INDEX 01 00:03:21
  TRACK 07 AUDIO
    TITLE "0:"
    INDEX 01 00:04:27
  TRACK 08 AUDIO
    TITLE "16:cjc020_6666"
    INDEX 01 00:04:35
  TRACK 09 AUDIO
    TITLE "0:"
    INDEX 01 00:05:52
  TRACK 10 AUDIO
    TITLE "17:cjc020_6667"
    INDEX 01 00:06:37
  TRACK 11 AUDIO
    TITLE "0:"
    INDEX 01 00:07:27
  TRACK 12 AUDIO
    TITLE "16:cjc020_6668"
    INDEX 01 00:07:35
  TRACK 13 AUDIO
    TITLE "0:"
    INDEX 01 00:08:54
  TRACK 14 AUDIO
    TITLE "17:cjc020_6669"
    INDEX 01 00:09:36
  TRACK 15 AUDIO
    TITLE "0:"
    INDEX 01 00:10:21
  TRACK 16 AUDIO
    TITLE "16:cjc020_6670"
    INDEX 01 00:10:29
  TRACK 17 AUDIO
    TITLE "0:"
    INDEX 01 00:11:27
  TRACK 18 AUDIO
    TITLE "17:cjc020_6671"
    INDEX 01 00:12:11
  TRACK 19 AUDIO
    TITLE "0:"
    INDEX 01 00:15:30
  TRACK 20 AUDIO
    TITLE "16:cjc020_6672"
    INDEX 01 00:15:36
  TRACK 21 AUDIO
    TITLE "0:"
    INDEX 01 00:16:53
  TRACK 22 AUDIO
    TITLE "17:cjc020_6673"
    INDEX 01 00:17:35
  TRACK 23 AUDIO
    TITLE "0:"
    INDEX 01 00:20:28
  TRACK 24 AUDIO
    TITLE "16:cjc020_6674"
    INDEX 01 00:20:30
  TRACK 25 AUDIO
    TITLE "0:"
    INDEX 01 00:21:37
  TRACK 26 AUDIO
    TITLE "17:cjc020_6675"
    INDEX 01 00:22:23
  TRACK 27 AUDIO
    TITLE "0:"
    INDEX 01 00:23:28
  TRACK 28 AUDIO
    TITLE "16:cjc020_6676"
    INDEX 01 00:23:36
  TRACK 29 AUDIO
    TITLE "0:"
    INDEX 01 00:24:57
  TRACK 30 AUDIO
    TITLE "17:cjc020_6677"
    INDEX 01 00:25:45
  TRACK 31 AUDIO
    TITLE "0:"
    INDEX 01 00:27:73
  TRACK 32 AUDIO
    TITLE "16:cjc020_6678"
    INDEX 01 00:28:06
  TRACK 33 AUDIO
    TITLE "0:"
    INDEX 01 00:29:05
  TRACK 34 AUDIO
    TITLE "17:cjc020_6679"
    INDEX 01 00:29:62
  TRACK 35 AUDIO
    TITLE "0:"
    INDEX 01 00:30:61
  TRACK 36 AUDIO
    TITLE "16:cjc020_6680"
    INDEX 01 00:30:63
  TRACK 37 AUDIO
    TITLE "0:"
    INDEX 01 00:31:61
  TRACK 38 AUDIO
    TITLE "17:cjc020_6681"
    INDEX 01 00:32:45
  TRACK 39 AUDIO
    TITLE "0:"
    INDEX 01 00:34:67
  TRACK 40 AUDIO
    TITLE "16:cjc020_6682"
    INDEX 01 00:34:71
  TRACK 41 AUDIO
    TITLE "0:"
    INDEX 01 00:36:09
  TRACK 42 AUDIO
    TITLE "17:cjc020_6683"
    INDEX 01 00:36:70
  TRACK 43 AUDIO
    TITLE "0:"
    INDEX 01 00:38:04
  TRACK 44 AUDIO
    TITLE "16:cjc020_6684"
    INDEX 01 00:38:08
  TRACK 45 AUDIO
    TITLE "0:"
    INDEX 01 00:39:39
  TRACK 46 AUDIO
    TITLE "17:cjc020_6685"
    INDEX 01 00:40:26
  TRACK 47 AUDIO
    TITLE "0:"
    INDEX 01 00:41:40
  TRACK 48 AUDIO
    TITLE "16:cjc020_6686"
    INDEX 01 00:41:45
  TRACK 49 AUDIO
    TITLE "0:"
    INDEX 01 00:42:61
  TRACK 50 AUDIO
    TITLE "17:cjc020_6687"
    INDEX 01 00:43:42
  TRACK 51 AUDIO
    TITLE "0:"
    INDEX 01 00:44:52
  TRACK 52 AUDIO
    TITLE "16:cjc020_6688"
    INDEX 01 00:44:65
  TRACK 53 AUDIO
    TITLE "0:"
    INDEX 01 00:46:19
  TRACK 54 AUDIO
    TITLE "17:cjc020_6689"
    INDEX 01 00:47:01
  TRACK 55 AUDIO
    TITLE "0:"
    INDEX 01 00:47:72
  TRACK 56 AUDIO
    TITLE "16:cjc020_6690"
    INDEX 01 00:48:04
  TRACK 57 AUDIO
    TITLE "0:"
    INDEX 01 00:49:21
  TRACK 58 AUDIO
    TITLE "17:cjc020_6691"
    INDEX 01 00:50:07
  TRACK 59 AUDIO
    TITLE "0:"
    INDEX 01 00:51:03
  TRACK 60 AUDIO
    TITLE "16:cjc020_6692"
    INDEX 01 00:51:09
  TRACK 61 AUDIO
    TITLE "0:"
    INDEX 01 00:52:30
  TRACK 62 AUDIO
    TITLE "17:cjc020_6693"
    INDEX 01 00:53:13
  TRACK 63 AUDIO
    TITLE "0:"
    INDEX 01 00:54:25
  TRACK 64 AUDIO
    TITLE "16:cjc020_6694"
    INDEX 01 00:54:32
  TRACK 65 AUDIO
    TITLE "0:"
    INDEX 01 00:56:00
